<svg xmlns="http://www.w3.org/2000/svg" xmlns:xlink="http://www.w3.org/1999/xlink" version="1.1" width="256" height="256" viewBox="0 0 256 256" xml:space="preserve">

<defs>
</defs>
<g style="stroke: none; stroke-width: 0; stroke-dasharray: none; stroke-linecap: butt; stroke-linejoin: miter; stroke-miterlimit: 10; fill: none; fill-rule: nonzero; opacity: 1;" transform="translate(1.4065934065934016 1.4065934065934016) scale(2.81 2.81)" >
	<path d="M 88.975 60.852 c -1.367 -1.367 -3.582 -1.367 -4.949 0 L 72.47 72.407 V 28.941 c 0 -1.933 -1.567 -3.5 -3.5 -3.5 s -3.5 1.567 -3.5 3.5 v 43.467 L 53.913 60.852 c -1.367 -1.367 -3.584 -1.367 -4.949 0 c -1.367 1.366 -1.367 3.583 0 4.949 l 17.53 17.529 c 0.163 0.163 0.343 0.309 0.535 0.438 c 0.084 0.056 0.176 0.095 0.264 0.143 c 0.112 0.061 0.22 0.129 0.338 0.178 c 0.115 0.047 0.234 0.075 0.353 0.109 c 0.1 0.03 0.197 0.068 0.301 0.089 c 0.226 0.045 0.456 0.069 0.685 0.069 s 0.459 -0.024 0.685 -0.069 c 0.104 -0.021 0.2 -0.059 0.301 -0.089 c 0.118 -0.035 0.238 -0.062 0.353 -0.109 c 0.119 -0.049 0.227 -0.117 0.338 -0.178 c 0.088 -0.048 0.18 -0.087 0.264 -0.143 c 0.193 -0.129 0.372 -0.274 0.535 -0.438 l 17.529 -17.529 C 90.342 64.435 90.342 62.218 88.975 60.852 z" style="stroke: none; stroke-width: 1; stroke-dasharray: none; stroke-linecap: butt; stroke-linejoin: miter; stroke-miterlimit: 10; fill: rgb(0,0,0); fill-rule: nonzero; opacity: 1;" transform=" matrix(1 0 0 1 0 0) " stroke-linecap="round" />
	<path d="M 3.5 36.548 h 44.546 c 1.933 0 3.5 -1.567 3.5 -3.5 s -1.567 -3.5 -3.5 -3.5 H 3.5 c -1.933 0 -3.5 1.567 -3.5 3.5 S 1.567 36.548 3.5 36.548 z" style="stroke: none; stroke-width: 1; stroke-dasharray: none; stroke-linecap: butt; stroke-linejoin: miter; stroke-miterlimit: 10; fill: rgb(0,0,0); fill-rule: nonzero; opacity: 1;" transform=" matrix(1 0 0 1 0 0) " stroke-linecap="round" />
	<path d="M 3.5 12.643 h 65.47 c 1.933 0 3.5 -1.567 3.5 -3.5 s -1.567 -3.5 -3.5 -3.5 H 3.5 c -1.933 0 -3.5 1.567 -3.5 3.5 S 1.567 12.643 3.5 12.643 z" style="stroke: none; stroke-width: 1; stroke-dasharray: none; stroke-linecap: butt; stroke-linejoin: miter; stroke-miterlimit: 10; fill: rgb(0,0,0); fill-rule: nonzero; opacity: 1;" transform=" matrix(1 0 0 1 0 0) " stroke-linecap="round" />
	<path d="M 46.046 77.356 H 3.5 c -1.933 0 -3.5 1.567 -3.5 3.5 s 1.567 3.5 3.5 3.5 h 42.546 c 1.933 0 3.5 -1.567 3.5 -3.5 S 47.979 77.356 46.046 77.356 z" style="stroke: none; stroke-width: 1; stroke-dasharray: none; stroke-linecap: butt; stroke-linejoin: miter; stroke-miterlimit: 10; fill: rgb(0,0,0); fill-rule: nonzero; opacity: 1;" transform=" matrix(1 0 0 1 0 0) " stroke-linecap="round" />
	<path d="M 3.5 60.452 h 30.546 c 1.933 0 3.5 -1.567 3.5 -3.5 s -1.567 -3.5 -3.5 -3.5 H 3.5 c -1.933 0 -3.5 1.567 -3.5 3.5 S 1.567 60.452 3.5 60.452 z" style="stroke: none; stroke-width: 1; stroke-dasharray: none; stroke-linecap: butt; stroke-linejoin: miter; stroke-miterlimit: 10; fill: rgb(0,0,0); fill-rule: nonzero; opacity: 1;" transform=" matrix(1 0 0 1 0 0) " stroke-linecap="round" />
</g>
</svg>